<?xml version="1.0" encoding="UTF-8"?>
<svg id="Layer_2" data-name="Layer 2" xmlns="http://www.w3.org/2000/svg" viewBox="0 0 96.38 96.38">
  <defs>
    <style>
      .cls-1 {
        fill: #9e280e;
      }

      .cls-2 {
        fill: #fff;
      }

      .cls-2, .cls-3 {
        fill-rule: evenodd;
      }

      .cls-3 {
        fill: #00a651;
      }
    </style>
  </defs>
  <g id="Layer_1-2" data-name="Layer 1">
    <g>
      <rect class="cls-1" width="96.38" height="96.38"/>
      <g>
        <polygon class="cls-3" points="70.39 28.85 62.09 22.26 62.09 35.43 70.39 28.85"/>
        <path class="cls-2" d="M45.39,68.51c-2.36-3.37-3.76-7.56-3.76-12.09,0-4.99,1.7-9.56,4.51-13.09-1.23-3.92-4.31-7.56-9-8.75-2.32-.59-4.93-.58-7.23.15-2.11.68-3.95,1.98-5.29,3.68v-3.21h-7.46v33.31h7.99v-18.62c0-4.01,2.34-7.35,5.35-7.85.93-.15,2.03-.16,2.96.02,1.56.3,2.98,1.37,3.96,2.91h0s0,0,0,0c.83,1.35,1.33,3.06,1.33,4.92v18.62h6.63Z"/>
        <path class="cls-2" d="M71.16,28.55v14.46c-2.86-2.67-6.59-4.28-10.67-4.28-9.03,0-16.36,7.93-16.36,17.7s7.32,17.7,16.36,17.7c4.43,0,8.44-1.9,11.39-5v3.92h7.34V28.55h-8.06ZM62.06,66.46c-5.52,0-10-4.48-10-10s4.48-10,10-10,10,4.48,10,10-4.48,10-10,10Z"/>
      </g>
    </g>
  </g>
</svg>